<?xml version="1.0" encoding="utf-8"?>
<!-- Generator: Adobe Illustrator 19.0.0, SVG Export Plug-In . SVG Version: 6.00 Build 0)  -->
<svg version="1.1" id="图层_1" xmlns="http://www.w3.org/2000/svg" xmlns:xlink="http://www.w3.org/1999/xlink" x="0px" y="0px"
	 viewBox="0 0 44 44" style="enable-background:new 0 0 44 44;" xml:space="preserve">
<style type="text/css">
	.st0{fill:#E59C5A;}
	.st1{fill:#FFFFFF;}
</style>
<g id="XMLID_1_">
	<g id="XMLID_187_">
		<g id="XMLID_188_">
			<path id="XMLID_189_" class="st0" d="M38.2,0H5.8C2.6,0,0,2.6,0,5.8v32.4C0,41.4,2.6,44,5.8,44h32.4c3.2,0,5.8-2.6,5.8-5.8V5.8
				C44,2.6,41.4,0,38.2,0z"/>
		</g>
	</g>
	<g id="XMLID_158_">
		<path id="XMLID_181_" class="st1" d="M26,32.6H12.3c-2.5,0-4.6-2.1-4.6-4.6V16c0-2.5,2.1-4.6,4.6-4.6H26c2.5,0,4.6,2.1,4.6,4.6v12
			C30.6,30.6,28.5,32.6,26,32.6z"/>
		<path id="XMLID_184_" class="st1" d="M35.1,28.8l-7.9-5.9c-0.6-0.4-0.6-1.4,0-1.8l7.9-5.9c0.6-0.4,1.2,0.1,1.2,0.9v11.7
			C36.3,28.7,35.7,29.2,35.1,28.8z"/>
	</g>
	<path id="XMLID_182_" class="st0" d="M18.4,27.4l6.2-4.6c0.4-0.3,0.4-1.1,0-1.5l-6.2-4.6c-0.4-0.3-1,0.1-1,0.7v9.3
		C17.4,27.3,18,27.7,18.4,27.4z"/>
</g>
</svg>
